<svg width="41" height="41" viewBox="0 0 41 41" fill="none" xmlns="http://www.w3.org/2000/svg">
<g clip-path="url(#clip0_182_1408)">
<path d="M20.5 3.41663C11.07 3.41663 3.41663 11.07 3.41663 20.5C3.41663 29.93 11.07 37.5833 20.5 37.5833C29.93 37.5833 37.5833 29.93 37.5833 20.5C37.5833 11.07 29.93 3.41663 20.5 3.41663ZM20.5 8.54163C23.3358 8.54163 25.625 10.8308 25.625 13.6666C25.625 16.5025 23.3358 18.7916 20.5 18.7916C17.6641 18.7916 15.375 16.5025 15.375 13.6666C15.375 10.8308 17.6641 8.54163 20.5 8.54163ZM20.5 32.8C16.2291 32.8 12.4537 30.6133 10.25 27.2991C10.3012 23.8995 17.0833 22.0375 20.5 22.0375C23.8995 22.0375 30.6987 23.8995 30.75 27.2991C28.5462 30.6133 24.7708 32.8 20.5 32.8Z" fill="#3C7DB9"/>
</g>
<defs>
<clipPath id="clip0_182_1408">
<rect width="41" height="41" fill="white"/>
</clipPath>
</defs>
</svg>
