<svg width="44" height="44" viewBox="0 0 44 44" fill="none" xmlns="http://www.w3.org/2000/svg">
<path d="M10.5417 5.5C10.2214 5.50017 9.90677 5.58423 9.6291 5.7438C9.35142 5.90337 9.12038 6.13289 8.95898 6.40951L5.75065 11.9095C5.58677 12.1898 5.50027 12.5086 5.5 12.8333V34.8333C5.5 36.8373 7.16272 38.5 9.16667 38.5H34.8333C36.8373 38.5 38.5 36.8373 38.5 34.8333V12.8333C38.4997 12.5086 38.4132 12.1898 38.2494 11.9095L35.041 6.40951C34.8796 6.13289 34.6486 5.90337 34.3709 5.7438C34.0932 5.58423 33.7786 5.50017 33.4583 5.5H10.5417ZM11.5944 9.16667H32.4056L34.5433 12.8333H9.45671L11.5944 9.16667ZM9.16667 16.5H34.8333V34.8333H9.16667V16.5ZM16.5 20.1667V23.8333H27.5V20.1667H16.5Z" fill="white"/>
</svg>
