<svg width="44" height="44" viewBox="0 0 44 44" fill="none" xmlns="http://www.w3.org/2000/svg">
<g clip-path="url(#clip0_193_112)">
<path d="M21.9999 3.66669C13.8966 3.66669 7.33325 4.58335 7.33325 11V29.3334C7.33325 30.9467 8.04825 32.395 9.16659 33.4034V36.6667C9.16659 37.675 9.99159 38.5 10.9999 38.5H12.8333C13.8416 38.5 14.6666 37.675 14.6666 36.6667V34.8334H29.3333V36.6667C29.3333 37.675 30.1583 38.5 31.1666 38.5H32.9999C34.0083 38.5 34.8333 37.675 34.8333 36.6667V33.4034C35.9516 32.395 36.6666 30.9467 36.6666 29.3334V11C36.6666 4.58335 30.1033 3.66669 21.9999 3.66669ZM32.3766 9.14835H11.6233C12.6316 8.17669 15.2349 7.33335 21.9999 7.33335C28.7649 7.33335 31.3682 8.17669 32.3766 9.14835ZM32.9999 12.815V18.3334H10.9999V12.815H32.9999ZM32.3766 30.6717L31.8449 31.1667H12.1549L11.6233 30.6717C11.3849 30.47 10.9999 30.0117 10.9999 29.3334V22H32.9999V29.3334C32.9999 30.0117 32.6149 30.47 32.3766 30.6717Z" fill="white"/>
<path d="M15.5833 29.3333C17.102 29.3333 18.3333 28.1021 18.3333 26.5833C18.3333 25.0645 17.102 23.8333 15.5833 23.8333C14.0645 23.8333 12.8333 25.0645 12.8333 26.5833C12.8333 28.1021 14.0645 29.3333 15.5833 29.3333Z" fill="white"/>
<path d="M28.4167 29.3333C29.9355 29.3333 31.1667 28.1021 31.1667 26.5833C31.1667 25.0645 29.9355 23.8333 28.4167 23.8333C26.898 23.8333 25.6667 25.0645 25.6667 26.5833C25.6667 28.1021 26.898 29.3333 28.4167 29.3333Z" fill="white"/>
</g>
<defs>
<clipPath id="clip0_193_112">
<rect width="44" height="44" fill="white"/>
</clipPath>
</defs>
</svg>
