<svg width="60" height="60" viewBox="0 0 60 60" fill="none" xmlns="http://www.w3.org/2000/svg">
<path d="M20 12.5C10.35 12.5 2.5 20.35 2.5 30C2.5 39.65 10.35 47.5 20 47.5C23.7214 47.5 27.1658 46.3238 30.0049 44.3359C32.8434 46.3232 36.2867 47.5 40 47.5C49.6354 47.5 57.5 39.6354 57.5 30C57.5 20.3646 49.6354 12.5 40 12.5C36.2867 12.5 32.8434 13.6768 30.0049 15.6641C27.1658 13.6762 23.7214 12.5 20 12.5ZM40 17.5C46.9332 17.5 52.5 23.0668 52.5 30C52.5 36.9332 46.9332 42.5 40 42.5C37.7088 42.5 35.5961 41.8456 33.7549 40.7812C36.0929 37.8058 37.5 34.0692 37.5 30C37.5 25.9308 36.0929 22.1942 33.7549 19.2188C35.5961 18.1544 37.7088 17.5 40 17.5Z" fill="#3C7DBA"/>
</svg>
