<svg width="16" height="15" viewBox="0 0 16 15" fill="none" xmlns="http://www.w3.org/2000/svg">
<g clip-path="url(#clip0_229_2642)">
<path d="M4.66663 11.25C3.93329 11.25 3.33996 11.8125 3.33996 12.5C3.33996 13.1875 3.93329 13.75 4.66663 13.75C5.39996 13.75 5.99996 13.1875 5.99996 12.5C5.99996 11.8125 5.39996 11.25 4.66663 11.25ZM0.666626 1.25V2.5H1.99996L4.39996 7.24375L3.49996 8.775C3.39329 8.95 3.33329 9.15625 3.33329 9.375C3.33329 10.0625 3.93329 10.625 4.66663 10.625H12.6666V9.375H4.94663C4.85329 9.375 4.77996 9.30625 4.77996 9.21875L4.79996 9.14375L5.39996 8.125H10.3666C10.8666 8.125 11.3066 7.86875 11.5333 7.48125L13.92 3.425C13.9733 3.3375 14 3.23125 14 3.125C14 2.78125 13.7 2.5 13.3333 2.5H3.47329L2.84663 1.25H0.666626ZM11.3333 11.25C10.6 11.25 10.0066 11.8125 10.0066 12.5C10.0066 13.1875 10.6 13.75 11.3333 13.75C12.0666 13.75 12.6666 13.1875 12.6666 12.5C12.6666 11.8125 12.0666 11.25 11.3333 11.25Z" fill="white"/>
</g>
<defs>
<clipPath id="clip0_229_2642">
<rect width="16" height="15" fill="white"/>
</clipPath>
</defs>
</svg>
