<svg width="44" height="44" viewBox="0 0 44 44" fill="none" xmlns="http://www.w3.org/2000/svg">
<g clip-path="url(#clip0_303_58)">
<path d="M12.8334 33C10.8167 33 9.18504 34.65 9.18504 36.6667C9.18504 38.6833 10.8167 40.3333 12.8334 40.3333C14.85 40.3333 16.5 38.6833 16.5 36.6667C16.5 34.65 14.85 33 12.8334 33ZM1.83337 3.66666V7.33332H5.50004L12.1 21.2483L9.62504 25.74C9.33171 26.2533 9.16671 26.8583 9.16671 27.5C9.16671 29.5167 10.8167 31.1667 12.8334 31.1667H34.8334V27.5H13.6034C13.3467 27.5 13.145 27.2983 13.145 27.0417L13.2 26.8217L14.85 23.8333H28.5084C29.8834 23.8333 31.0934 23.0817 31.7167 21.945L38.28 10.0467C38.4267 9.78999 38.5 9.47832 38.5 9.16666C38.5 8.15832 37.675 7.33332 36.6667 7.33332H9.55171L7.82837 3.66666H1.83337ZM31.1667 33C29.15 33 27.5184 34.65 27.5184 36.6667C27.5184 38.6833 29.15 40.3333 31.1667 40.3333C33.1834 40.3333 34.8334 38.6833 34.8334 36.6667C34.8334 34.65 33.1834 33 31.1667 33Z" fill="#3C7DB9"/>
</g>
<defs>
<clipPath id="clip0_303_58">
<rect width="44" height="44" fill="white"/>
</clipPath>
</defs>
</svg>
